<?xml version="1.0" standalone="no"?><!DOCTYPE svg PUBLIC "-//W3C//DTD SVG 1.1//EN" "http://www.w3.org/Graphics/SVG/1.1/DTD/svg11.dtd"><svg t="1564294835352" class="icon" viewBox="0 0 1024 1024" version="1.1" xmlns="http://www.w3.org/2000/svg" p-id="1236" xmlns:xlink="http://www.w3.org/1999/xlink" width="200" height="200"><defs><style type="text/css"></style></defs><path d="M683.685522 1023.99953h-385.704922A235.185928 235.185928 0 0 1 65.146532 791.165461V35.277889A35.277889 35.277889 0 0 1 100.424421 0h625.594568A235.185928 235.185928 0 0 1 958.853058 232.834069v552.216558a35.277889 35.277889 0 0 1-12.229669 26.811196l-240.360018 204.141385a35.277889 35.277889 0 0 1-22.577849 7.996322zM135.231938 70.085406v721.080055a162.748662 162.748662 0 0 0 162.748662 162.748662h372.53451l218.252541-185.326511V232.834069a162.748662 162.748662 0 0 0-162.748662-162.748663z" fill="#515151" p-id="1237"></path><path d="M265.054571 217.311797h485.894126" fill="#FFFFFF" p-id="1238"></path><path d="M750.948697 252.589686H265.054571a35.277889 35.277889 0 0 1 0-70.085406h485.894126a35.277889 35.277889 0 0 1 0 70.085406z" fill="#515151" p-id="1239"></path><path d="M265.054571 392.760499h485.894126" fill="#FFFFFF" p-id="1240"></path><path d="M750.948697 427.568017H265.054571a35.277889 35.277889 0 0 1 0-70.085407h485.894126a35.277889 35.277889 0 0 1 0 70.085407z" fill="#515151" p-id="1241"></path><path d="M265.054571 567.73883h485.894126" fill="#FFFFFF" p-id="1242"></path><path d="M750.948697 603.016719H265.054571a35.277889 35.277889 0 1 1 0-70.085407h485.894126a35.277889 35.277889 0 0 1 0 70.085407zM647.937261 884.76946a23.518593 23.518593 0 0 1-23.518593-23.518592v-120.415195a23.518593 23.518593 0 0 1 23.518593-23.518593H817.741501a23.518593 23.518593 0 0 1 0 47.037185h-146.285647v96.896603a23.518593 23.518593 0 0 1-23.518593 23.518592z" fill="#515151" p-id="1243"></path></svg>