<?xml version="1.0" standalone="no"?><!DOCTYPE svg PUBLIC "-//W3C//DTD SVG 1.1//EN" "http://www.w3.org/Graphics/SVG/1.1/DTD/svg11.dtd"><svg t="1564298191966" class="icon" viewBox="0 0 1024 1024" version="1.1" xmlns="http://www.w3.org/2000/svg" p-id="4890" xmlns:xlink="http://www.w3.org/1999/xlink" width="200" height="200"><defs><style type="text/css"></style></defs><path d="M836.5 460.1h39.6v369c0 54-43.8 97.8-97.8 97.8H533c-11 0-20-9-20-20V862c0-11 9-20 20-20h219.5c25.4 0 45.9-20.6 45.9-45.9v-76.7H688.6c-11 0-20-9-20-20V480.1c0-11 9-20 20-20h147.9-39.6v-1.5c0-156.8-127.7-283.8-285.3-283.8-157.5 0-285.3 127.1-285.3 283.8v1.5h-76.4v161.6c0 54 43.8 97.8 97.8 97.8h89.7c11 0 20-9 20-20V480.1c0-11-9-20-20-20H149.9v-1.8C149.9 258.8 312.5 97 513 97s363.1 161.7 363.1 361.3v1.8h-39.6z" p-id="4891"></path></svg>