<?xml version="1.0" standalone="no"?><!DOCTYPE svg PUBLIC "-//W3C//DTD SVG 1.1//EN" "http://www.w3.org/Graphics/SVG/1.1/DTD/svg11.dtd"><svg t="1564303469574" class="icon" viewBox="0 0 1024 1024" version="1.1" xmlns="http://www.w3.org/2000/svg" p-id="9252" xmlns:xlink="http://www.w3.org/1999/xlink" width="200" height="200"><defs><style type="text/css"></style></defs><path d="M885.3 285.5l-18.2 38.1 1.2-2.6 4.8-10c8.8-16.9-0.2-25.5-14.1-25.5h26.3zM775.8 516.9l-40.8 2.8 16.2-1.1c17.5-1.8 32.1-15.5 37-27.8l-12.4 26.1zM202.3 147.6l4.9 41.8v0.5l-2.1-17.7c-0.8-13.8-15.1-24.6-29.1-24.6h26.3zM351.2 704.1l-5.1-40.9v-0.9l2 17c0.8 13.8 15.4 24.8 29.4 24.8h-26.3z" fill="#242424" p-id="9253"></path><path d="M406.7 893.6m-57.4 0a57.4 57.4 0 1 0 114.8 0 57.4 57.4 0 1 0-114.8 0Z" fill="#242424" p-id="9254"></path><path d="M708.7 893.6m-57.4 0a57.4 57.4 0 1 0 114.8 0 57.4 57.4 0 1 0-114.8 0Z" fill="#242424" p-id="9255"></path><path d="M938.3 204.7c-2.3-0.4-4.6-0.7-7-0.9H358.6c-22.6 0-41 18.3-41 41 0 22.6 18.3 41 41 41H885l-109.2 231-371.9 25.5c-22.6 1.5-39.6 21.1-38.1 43.7s21.1 39.6 43.7 38.1L805.4 597c15.1-1 27.7-10.2 34-22.8l0.6-1.2 135.2-286.1c12.6-32 1.2-74.9-36.9-82.2z" fill="#242424" p-id="9256"></path><path d="M785.7 703.8H351.2L281 117c-7.3-28.8-33-50.3-63.9-51.2H70.6c-22.6 0-41 18.3-41 41 0 22.6 18.3 41 41 41h131.5l69.6 580.8c5.2 32.4 33.3 57.2 67.2 57.2h446.7c22.6 0 41-18.3 41-41s-18.3-41-40.9-41z" fill="#242424" p-id="9257"></path></svg>